#N canvas 302 112 904 586 12;
#X obj 40 56 hsl 100 19 0 127 0 0 dynamics empty DYNAMICS -2 -10 0 12 #c6ffc7 #000000 #000000 0 1;
#X obj 305 56 hsl 100 19 0 127 0 0 wet empty WET -2 -10 0 12 #c6ffc7 #000000 #000000 0 1;
#X obj 40 102 hsl 100 19 0 127 0 0 attack empty ATTACK -2 -10 0 12 #c6ffc7 #000000 #000000 0 1;
#X obj 174 102 hsl 100 19 0 127 0 0 eq empty EQ -2 -10 0 12 #c6ffc7 #000000 #000000 0 1;
#N canvas 266 304 982 488 sendinginfo 0;
#X obj 21 21 r dynamics;
#X obj 110 163 outlet;
#X obj 108 21 r eq;
#X obj 85 72 pack f 18;
#X obj 18 72 pack f 14;
#X obj 154 21 r sensitivity;
#X obj 145 72 pack f 15;
#X obj 326 167 r dusty;
#X obj 326 193 pack f 78;
#X obj 239 167 r miso;
#X obj 239 193 pack f 71;
#X obj 243 23 r attack;
#X obj 310 23 r wet;
#X obj 363 23 r dry;
#X obj 207 72 pack f 17;
#X obj 269 72 pack f 16;
#X obj 336 72 pack f 19;
#X obj 403 72 pack f 20;
#X obj 411 23 r rampspeed;
#X obj 239 276 r release;
#X obj 239 333 pack f 21;
#X obj 239 302 + 1;
#X obj 302 302 + 1;
#X obj 302 276 r mode;
#X obj 368 302 + 1;
#X obj 368 276 r physics;
#X obj 302 333 pack f 22;
#X obj 368 333 pack f 23;
#X obj -1 193 r swell;
#X obj -1 219 pack f 103;
#X obj 496 23 r swellin;
#X obj 555 23 r swellout;
#X obj 473 72 pack f 26;
#X obj 546 72 pack f 29;
#X obj 625 23 r balancefilter;
#X obj 616 72 pack f 28;
#X obj 679 39 r userrelease;
#X obj 679 79 pack f 27;
#X obj 759 19 r envelopemode;
#X obj 747 79 pack f 31;
#X obj 799 39 r shiftymode;
#X obj 811 79 pack f 32;
#X obj 890 39 r spreadrouting;
#X obj 890 65 pack f 33;
#X obj 953 19 r noisegaterelease;
#X obj 963 65 pack f 24;
#X obj 1019 39 r noisegatesens;
#X obj 1030 65 pack f 25;
#X obj -1 239 r dynamicsmax;
#X obj -1 265 pack f 106;
#X obj 413 164 r latch;
#X obj 413 188 pack f 73;
#X obj 490 161 r latch;
#X obj 490 185 pack f 72;
#X obj 561 185 pack f 74;
#X obj 464 242 pack f 76;
#X obj 634 185 pack f 75;
#X obj 537 242 pack f 77;
#X obj 561 161 r sidechain;
#X obj 654 161 r noisegate;
#X obj 464 218 r motion;
#X obj 537 218 r swellaux;
#X obj 0 290 r bypass;
#X obj 4 315 pack f 102;
#X obj 95 296 r rampbounce;
#X obj 95 320 pack f 52;
#X obj 8 338 r factoryreset;
#X obj 26 365 pack 0 56;
#X connect 0 0 4 0;
#X connect 2 0 3 0;
#X connect 3 0 1 0;
#X connect 4 0 1 0;
#X connect 5 0 6 0;
#X connect 6 0 1 0;
#X connect 7 0 8 0;
#X connect 8 0 1 0;
#X connect 9 0 10 0;
#X connect 10 0 1 0;
#X connect 11 0 14 0;
#X connect 12 0 15 0;
#X connect 13 0 16 0;
#X connect 14 0 1 0;
#X connect 15 0 1 0;
#X connect 16 0 1 0;
#X connect 17 0 1 0;
#X connect 18 0 17 0;
#X connect 19 0 21 0;
#X connect 20 0 1 0;
#X connect 21 0 20 0;
#X connect 22 0 26 0;
#X connect 23 0 22 0;
#X connect 24 0 27 0;
#X connect 25 0 24 0;
#X connect 26 0 1 0;
#X connect 27 0 1 0;
#X connect 28 0 29 0;
#X connect 29 0 1 0;
#X connect 30 0 32 0;
#X connect 31 0 33 0;
#X connect 32 0 1 0;
#X connect 33 0 1 0;
#X connect 34 0 35 0;
#X connect 35 0 1 0;
#X connect 36 0 37 0;
#X connect 37 0 1 0;
#X connect 38 0 39 0;
#X connect 39 0 1 0;
#X connect 40 0 41 0;
#X connect 41 0 1 0;
#X connect 42 0 43 0;
#X connect 43 0 1 0;
#X connect 44 0 45 0;
#X connect 45 0 1 0;
#X connect 46 0 47 0;
#X connect 47 0 1 0;
#X connect 48 0 49 0;
#X connect 49 0 1 0;
#X connect 50 0 51 0;
#X connect 51 0 1 0;
#X connect 52 0 53 0;
#X connect 53 0 1 0;
#X connect 54 0 1 0;
#X connect 55 0 1 0;
#X connect 56 0 1 0;
#X connect 57 0 1 0;
#X connect 58 0 54 0;
#X connect 59 0 56 0;
#X connect 60 0 55 0;
#X connect 60 0 1 0;
#X connect 61 0 57 0;
#X connect 61 0 1 0;
#X connect 62 0 63 0;
#X connect 63 0 1 0;
#X connect 64 0 65 0;
#X connect 65 0 1 0;
#X connect 66 0 67 0;
#X connect 67 0 1 0;
#X restore 40 555 pd sendinginfo;
#X obj 46 589 unpack f f;
#X obj 66 660 ctlout 2;
#X obj 305 102 hsl 100 19 0 127 0 0 dry empty DRY -2 -10 0 12 #c6ffc7 #000000 #000000 0 1;
#X obj 174 56 hsl 100 19 0 127 0 0 sensitivity empty SENSITIVITY -2 -10 0 12 #c6ffc7 #000000 #000000 0 1;
#X obj 32 148 hradio 19 1 0 3 release empty RELEASE 0 -10 0 12 #fcfcfc #000000 #000000 0;
#X obj 165 148 hradio 19 1 0 3 mode empty MODE 0 -10 0 12 #fcfcfc #000000 #000000 0;
#X obj 296 148 hradio 19 1 0 3 physics empty PHYSICS 0 -10 0 12 #fcfcfc #000000 #000000 0;
#X obj 159 240 tgl 19 0 bypass empty BYPASS 0 -10 0 12 #feffc6 #000000 #000000 0 1;
#X obj 36 240 tgl 19 0 swell empty SWELL 0 -10 0 12 #feffc6 #000000 #000000 0 1;
#X obj 288 240 tgl 19 0 dynamicsmax empty DYNAMICS\ MAX 0 -10 0 12 #feffc6 #000000 #000000 0 1;
#X text 296 170 swobbly \, off \, twitchy, f 15;
#X floatatom 36 298 5 2 122 2 PRESET - presetnumber 0;
#X obj 25 340 bng 19 250 50 0 load empty LOAD 0 -10 0 12 #fc4950 #000000 #000000;
#X obj 59 340 bng 19 250 50 0 save empty SAVE 0 -10 0 12 #fc4950 #000000 #000000;
#X obj 159 298 tgl 19 0 rampbounce empty RAMP\ /\ BOUNCE 0 -10 0 12 #feffc6 #000000 #000000 0 1;
#X obj 288 298 bng 19 250 50 0 factoryreset empty FACTORY\ RESET 0 -10 0 12 #feffc6 #000000 #000000;
#X obj 439 56 hsl 100 19 0 127 0 0 rampspeed empty RAMP\ SPEED -2 -10 0 12 #ffe3c6 #000000 #000000 0 1;
#X obj 572 56 hsl 100 19 0 127 0 0 balancefilter empty BALANCE\ FILTER -2 -10 0 12 #ffe3c6 #000000 #000000 0 1;
#X obj 145 353 tgl 19 0 dusty empty DUSTY 0 -10 0 12 #00ff04 #000000 #000000 0 1;
#X obj 188 353 tgl 19 0 miso empty MISO 0 -10 0 12 #00ff04 #000000 #000000 0 1;
#X obj 439 95 hsl 100 19 0 127 0 0 swellin empty SWELL\ IN -2 -10 0 12 #ffe3c6 #000000 #000000 0 1;
#X obj 572 95 hsl 100 19 0 127 0 0 swellout empty SWELL\ OUT -2 -10 0 12 #ffe3c6 #000000 #000000 0 1;
#X obj 439 134 hsl 100 19 0 127 0 0 noisegaterelease empty NOISE\ GATE\ RELEASE -2 -10 0 12 #ffe3c6 #000000 #000000 0 1;
#X obj 572 134 hsl 100 19 0 127 0 0 noisegatesens empty NOISE\ GATE\ SENS -2 -10 0 12 #ffe3c6 #000000 #000000 0 1;
#X obj 439 173 hsl 100 19 0 127 0 0 user\ release empty USER\ RELEASE -2 -10 0 12 #ffe3c6 #000000 #000000 0 1;
#X obj 572 173 hsl 100 19 0 127 0 0 envelopemode empty ENVELOPE\ MODE -2 -10 0 12 #ffe3c6 #000000 #000000 0 1;
#X text 165 170 shifty \, manual \, modulated, f 14;
#X text 32 170 short \, user \, long, f 14;
#X obj 227 353 tgl 19 0 spread empty SPREAD -4 -10 0 12 #00ff04 #000000 #000000 0 1;
#X obj 309 353 tgl 19 0 sidechain empty SIDECHAIN 0 -10 0 12 #00ff04 #000000 #000000 0 1;
#X obj 376 353 tgl 19 0 noisegate empty NOISEGATE 0 -10 0 12 #00ff04 #000000 #000000 0 1;
#X obj 445 353 tgl 19 0 motion empty MOTION 0 -10 0 12 #00ff04 #000000 #000000 0 1;
#X obj 491 353 tgl 19 0 swellaux empty SWELL\ AUX 0 -10 0 12 #00ff04 #000000 #000000 0 1;
#X obj 440 216 hsl 100 19 0 127 0 0 shiftymode empty SHIFTY\ MODE -2 -10 0 12 #ffe3c6 #000000 #000000 0 1;
#X obj 573 216 hsl 100 19 0 127 0 0 spreadrouting empty SPREAD\ ROUTING -2 -10 0 12 #ffe3c6 #000000 #000000 0 1;
#X obj 272 353 tgl 19 0 latch empty LATCH -4 -10 0 12 #00ff04 #000000 #000000 0 1;
#X obj 181 552 r load;
#X obj 238 552 r save;
#X obj 185 586 f;
#X obj 239 586 f;
#X obj 293 555 r presetnumber;
#X obj 185 656 pgmout 2;
#X obj 237 621 pack f 111;
#X text 11 381 Load 0 to go back to live pedal 1 is right and 2 is left preset;
#X connect 4 0 5 0;
#X connect 5 0 6 0;
#X connect 5 1 6 1;
#X connect 41 0 43 0;
#X connect 42 0 44 0;
#X connect 43 0 46 0;
#X connect 44 0 47 0;
#X connect 45 0 44 1;
#X connect 45 0 43 1;
#X connect 47 0 5 0;
